<svg fill="none" height="480" viewBox="0 0 480 480" width="480" xmlns="http://www.w3.org/2000/svg" xmlns:xlink="http://www.w3.org/1999/xlink"><radialGradient id="a" cx="0" cy="0" gradientTransform="matrix(64.2677 0 0 64.1368 174.966 328.003)" gradientUnits="userSpaceOnUse" r="1"><stop offset="0" stop-color="#f5c252"/><stop offset=".12" stop-color="#f5c355" stop-opacity=".98"/><stop offset=".25" stop-color="#f6c65e" stop-opacity=".93"/><stop offset=".38" stop-color="#f7cb6c" stop-opacity=".85"/><stop offset=".51" stop-color="#f8d381" stop-opacity=".73"/><stop offset=".64" stop-color="#f9dc9b" stop-opacity=".58"/><stop offset=".78" stop-color="#fbe7bc" stop-opacity=".39"/><stop offset=".91" stop-color="#fdf5e2" stop-opacity=".17"/><stop offset="1" stop-color="#fff" stop-opacity="0"/></radialGradient><linearGradient id="b" gradientUnits="userSpaceOnUse" x1="300.01" x2="301.85" y1="363.94" y2="302.482"><stop offset=".55" stop-color="#fff"/><stop offset=".57" stop-color="#fff"/><stop offset=".85" stop-color="#f4f4f4"/></linearGradient><linearGradient id="c" gradientUnits="userSpaceOnUse" x1="161.515" x2="160.283" y1="335.032" y2="309.872"><stop offset="0" stop-color="#fff"/><stop offset="1" stop-color="#f4f4f4"/></linearGradient><linearGradient id="d" gradientUnits="userSpaceOnUse" x1="241.47" x2="241.47" y1="290.864" y2="180.533"><stop offset="0" stop-color="#fff"/><stop offset="1" stop-color="#edece6"/></linearGradient><path d="m0 0h480v480h-480z" fill="#fff"/><path d="m364.173 155.536c-4.634-10.615.229-22.97 10.864-27.598 0 0-3.595 11.8 1.038 22.416 4.634 10.617 15.762 16.023 15.762 16.023-5.109 2.224-10.894 2.332-16.082.298-5.188-2.033-9.354-6.04-11.582-11.139z" style="fill-rule:evenodd;clip-rule:evenodd;stroke:#e8e9eb;stroke-width:2;stroke-linecap:round;stroke-linejoin:round"/><path d="m45.1987 353.587c1.1725-5.22-1.6787-10.507-6.6907-12.406-1.6088-.601-3.3396-.806-5.0449-.596-2.6069-5.658-8.0505-9.489-14.2661-10.041-6.2155-.551-12.251 2.262-15.81712 7.372" stroke="#e8e9eb" stroke-linecap="round" stroke-linejoin="round" stroke-width="2"/><path d="m462.182 338.444c-.303-4.935-4.184-8.904-9.12-9.326-1.583-.126-3.173.132-4.634.752-3.758-4.382-9.585-6.412-15.259-5.316-5.675 1.096-10.322 5.15-12.17 10.615-5.414.487-9.424 5.238-8.982 10.646" stroke="#e8e9eb" stroke-linecap="round" stroke-linejoin="round" stroke-width="2"/><path d="m377.085 348.738s-62.253-19.112-139.044-19.112c-76.79 0-139.043 19.112-139.043 19.112 0-82.978 62.253-150.286 139.043-150.286 76.791 0 139.044 67.308 139.044 150.286z" fill="url(#a)"/><path d="m1.54785 369.101s226.84415-104.739 476.89515.509" stroke="#505763" stroke-linecap="round" stroke-linejoin="round" stroke-width="2"/><path d="m380.17 353.196c-2.964-6.76-10.71-10.024-17.632-7.43-.177-.528-.382-1.065-.608-1.583-3.871-8.865-13.584-13.652-22.991-11.331-.308-8.906-5.755-16.829-13.971-20.319-8.216-3.491-17.714-1.919-24.36 4.032-11.109-14.327-30.879-18.709-47.021-10.421-16.653 8.505-22.873-.528-16.653 17.059" fill="url(#b)"/><path d="m380.17 353.196c-2.964-6.76-10.71-10.024-17.632-7.43-.177-.528-.382-1.065-.608-1.583-3.871-8.865-13.584-13.652-22.991-11.331-.308-8.906-5.755-16.829-13.971-20.319-8.216-3.491-17.714-1.919-24.36 4.032-11.109-14.327-30.879-18.709-47.021-10.421-16.653 8.505-22.873-.528-16.653 17.059" stroke="#505763" stroke-linecap="round" stroke-linejoin="round" stroke-width="2"/><path d="m388.722 352.912c-4.582-2.616-10.422-1.053-13.077 3.5" stroke="#505763" stroke-linecap="round" stroke-linejoin="round" stroke-width="2"/><path d="m247.553 313.975c5.436-11.966-32.846 8.427-44.591 13.373-.725.303-.51-1.495-.157-2.19l.215-.449c2.766-6.228.558-13.538-5.196-17.204-5.754-3.665-13.328-2.586-17.824 2.54-.517.595-1.31.874-2.087.733-19.313-3.368-37.948 8.744-42.671 27.734-.279 1.108-1.356 1.823-2.488 1.653-7.28-.966-14.496 2.183-18.73 8.172-.621.858-1.772 1.143-2.723.675l-.519-.245c-11.471-5.191-28.4572-1.055-33.0808 16.62" fill="url(#c)"/><path d="m247.553 313.975c5.436-11.966-32.846 8.427-44.591 13.373-.725.303-.51-1.495-.157-2.19l.215-.449c2.766-6.228.558-13.538-5.196-17.204-5.754-3.665-13.328-2.586-17.824 2.54-.517.595-1.31.874-2.087.733-19.313-3.368-37.948 8.744-42.671 27.734-.279 1.108-1.356 1.823-2.488 1.653-7.28-.966-14.496 2.183-18.73 8.172-.621.858-1.772 1.143-2.723.675l-.519-.245c-11.471-5.191-28.4572-1.055-33.0808 16.62" stroke="#505763" stroke-linecap="round" stroke-linejoin="round" stroke-width="2"/><path d="m299.276 179.79h-118.56v149.572h118.56z" fill="#853c6c" stroke="#505763" stroke-linecap="round" stroke-linejoin="round" stroke-width="2"/><path d="m299.285 310.064h-118.051v-78.051l118.051-21.663z" fill="#8b4875"/><path d="m299.276 179.79h-118.56v149.572h118.56z" stroke="#505763" stroke-linecap="round" stroke-linejoin="round" stroke-width="2"/><path d="m279.312 286.651c0-1.075 2.419-18.917-8.719-21.918-7.147-2.004-14.047-4.802-20.571-8.339v-7.361s11.197-.186 15.86-3.353c-2.547-12.885-2.685-10.236-2.685-22.68 0-19.279-14.938-30.022-31.19-21.947-11.226 1.182-12 11.477-11.892 13.207-.313 4.311-.47 19.943-4.575 30.921 5.202 2.302 10.792 3.606 16.477 3.842v7.362l-19.043 8.984s-8.865 3.226-8.924 7.537c-.079 6.022-.608 14.107-.608 14.107s75.87.723 75.87-.362z" fill="url(#d)"/><path d="m299.276 281.734h-118.286v47.364h118.286z" fill="#fff" stroke="#505763" stroke-linecap="round" stroke-linejoin="round" stroke-width="2"/><path d="m243.801 307.552h-53.055v7.958h53.055z" fill="#edece6"/><path d="m272.993 293.123h-82.247v7.957h82.247z" fill="#edece6"/><path d="m297.316 329.362h8.866" stroke="#645a53" stroke-linecap="round" stroke-linejoin="round" stroke-width="2"/><path d="m310.746 329.362h4.878" stroke="#d3d2d2" stroke-linecap="round" stroke-linejoin="round" stroke-width="2"/><path d="m202.718 329.362h-30.25" stroke="#645a53" stroke-linecap="round" stroke-linejoin="round" stroke-width="2"/><path d="m166.472 329.362h-7.758" stroke="#d3d2d2" stroke-linecap="round" stroke-linejoin="round" stroke-width="2"/><path d="m296.474 339.089c-.354-5.872-4.971-10.596-10.844-11.096-1.881-.145-3.77.164-5.506.9-4.47-5.189-11.385-7.589-18.117-6.288-6.732 1.302-12.248 6.104-14.454 12.584-6.443.569-11.215 6.226-10.678 12.659" fill="#fff"/><g stroke-linecap="round" stroke-linejoin="round" stroke-width="2"><path d="m296.474 339.089c-.354-5.872-4.971-10.596-10.844-11.096-1.881-.145-3.77.164-5.506.9-4.47-5.189-11.385-7.589-18.117-6.288-6.732 1.302-12.248 6.104-14.454 12.584-6.443.569-11.215 6.226-10.678 12.659" stroke="#645a53"/><path d="m399.683 305.157v-3.422" stroke="#505763"/><path d="m399.683 295.811v-3.422" stroke="#505763"/><path d="m393.286 298.773h3.429" stroke="#505763"/><path d="m402.651 298.773h3.429" stroke="#505763"/><path d="m283.837 129.981v-5.113" stroke="#505763"/><path d="m283.837 116.002v-5.123" stroke="#505763"/><path d="m274.266 120.43h5.133" stroke="#505763"/><path d="m288.284 120.43h5.133" stroke="#505763"/><path d="m52.584 257.89v-3.422" stroke="#505763"/><path d="m52.584 248.544v-3.421" stroke="#505763"/><path d="m46.1875 251.506h3.4286" stroke="#505763"/><path d="m55.5527 251.506h3.4286" stroke="#505763"/><path d="m343.739 284.354v-7.059c-13.034-.011-24.351-8.961-27.341-21.622-2.989-12.661 3.134-25.712 14.792-31.53 11.659-5.817 25.794-2.875 34.15 7.108s8.741 24.389.93 34.802c-4.604 6.1-22.531 18.301-22.531 18.301z" fill="#b4e0e9" stroke="#505763"/><path d="m330.583 260.823c5.75 0 9.678 1.799 14.273 1.799h4.859c2.625 0 2.821-.704 3.604-1.799.59-.602.939-1.398.98-2.239.088-.401.862-1.955.98-2.385.147-.743 0-1.633.156-2.444.157-.812.98-1.682 1.097-2.346.118-.665-.607-2.22-.421-2.708.392-.71.663-1.48.804-2.278-.075-.961-.84-1.725-1.803-1.799h-2.194c-1.656.035-3.3.271-4.898.704.392-3.803 3.458-2.679 3.458-8.134 0-1.74-.794-3.363-3.125-3.363h-.353c-.362 0-.509.675-.509 1.594 0 3.138-3.056 4.389-5.025 6.442-1.548 1.613-5.878 5.66-11.903 5.66" stroke="#505763"/><path d="m105.728 277.862c0-.391 0-.752 0-1.095v-.107c0-.28.022-.544.068-.792 1.136-11.223 11.324-20.021 24.353-20.021 13.792 0 24.49 9.854 24.49 22.006 0 12.151-10.668 22.005-24.49 22.005v5.817s-23.295-7.4-24.402-26.444c.049-.45-.019-.909-.019-1.369z" fill="#b4e0e9" stroke="#505763"/><path d="m142.834 280.541c1.418 0 2.567-1.147 2.567-2.561 0-1.415-1.149-2.562-2.567-2.562-1.417 0-2.566 1.147-2.566 2.562 0 1.414 1.149 2.561 2.566 2.561z" fill="#fff" stroke="#505763"/><path d="m132.294 280.541c1.418 0 2.567-1.147 2.567-2.561 0-1.415-1.149-2.562-2.567-2.562-1.417 0-2.566 1.147-2.566 2.562 0 1.414 1.149 2.561 2.566 2.561z" fill="#fff" stroke="#505763"/><path d="m119.236 277.481c-.219 1.107.314 2.227 1.313 2.758.998.53 2.227.345 3.024-.455.798-.8.977-2.027.441-3.021s-1.661-1.52-2.769-1.296c-1.014.208-1.805 1.001-2.009 2.014z" fill="#fff" stroke="#505763"/><path d="m117.287 156.064c0-.704 0-1.359.059-1.956 0-.058 0-.117 0-.176 0-.501.039-.977.117-1.427 2.058-20.265 20.435-36.171 43.955-36.171 24.891 0 44.15 17.792 44.15 39.73 0 21.937-19.259 39.729-44.15 39.729v10.48s-42.054-13.364-44.082-47.746c-.01-.802-.049-1.623-.049-2.463z" fill="#b4e0e9" stroke="#505763"/><path d="m180.461 162.809c2.559 0 4.633-2.07 4.633-4.624s-2.074-4.624-4.633-4.624-4.634 2.07-4.634 4.624 2.075 4.624 4.634 4.624z" fill="#fff" stroke="#505763"/><path d="m161.437 162.809c2.559 0 4.634-2.07 4.634-4.624s-2.075-4.624-4.634-4.624-4.633 2.07-4.633 4.624 2.074 4.624 4.633 4.624z" fill="#fff" stroke="#505763"/><path d="m142.413 162.809c2.559 0 4.633-2.07 4.633-4.624s-2.074-4.624-4.633-4.624-4.634 2.07-4.634 4.624 2.075 4.624 4.634 4.624z" fill="#fff" stroke="#505763"/></g></svg>