<svg fill="none" height="480" viewBox="0 0 480 480" width="480" xmlns="http://www.w3.org/2000/svg" xmlns:xlink="http://www.w3.org/1999/xlink"><linearGradient id="a"><stop offset="0" stop-color="#fff"/><stop offset="1" stop-color="#f4f4f4"/></linearGradient><linearGradient id="b" gradientUnits="userSpaceOnUse" x1="336.419" x2="336.419" xlink:href="#a" y1="338.982" y2="218.319"/><linearGradient id="c" gradientUnits="userSpaceOnUse" x1="38099.1" x2="38099.1" xlink:href="#a" y1="32341" y2="19074.7"/><linearGradient id="d" gradientUnits="userSpaceOnUse" x1="243.709" x2="243.709" y1="273.609" y2="172.54"><stop offset="0" stop-color="#fff"/><stop offset="1" stop-color="#edece6"/></linearGradient><clipPath id="e"><path d="m0 0h480v480h-480z"/></clipPath><g clip-path="url(#e)"><path d="m0 0h480v480h-480z" fill="#fff"/><path d="m125.139 181.164c2.19-6.878-.987-14.323-7.463-17.489-2.081-.999-4.372-1.478-6.677-1.397-2.811-7.91-9.636-13.705-17.8856-15.185-8.2491-1.481-16.6577 1.58-22.0343 8.02" stroke="#dedfe0" stroke-linecap="round" stroke-linejoin="round" stroke-width="2"/><path d="m411.397 151.245c-.494-6.075-5.361-10.868-11.433-11.257-1.943-.109-3.884.253-5.658 1.057-4.727-5.277-11.915-7.612-18.833-6.116-6.919 1.495-12.507 6.591-14.642 13.352-6.624.746-11.41 6.7-10.726 13.343" stroke="#dedfe0" stroke-linecap="round" stroke-linejoin="round" stroke-width="2"/><path d="m397.782 278.794h57.216z" fill="#fff"/><path d="m397.782 278.794h57.216" stroke="#c9c4c4" stroke-linecap="round" stroke-linejoin="round" stroke-width="2"/><path d="m463.034 278.794h16.045" stroke="#d3d2d2" stroke-linecap="round" stroke-linejoin="round" stroke-width="2"/><path d="m433.599 180.179h-100.532v127.317h100.532z" fill="#f7f8fa" stroke="#8a92a3" stroke-linecap="round" stroke-linejoin="round" stroke-width="2"/><path d="m390.435 233.543h-56.277v17.911h112.796v-17.911z" fill="#b4e0e9"/><path d="m377.805 268.182h-34.896v17.911h65.725v-17.911z" fill="#fbe7ba"/><path d="m377.492 198.976h-43.531v17.911h81.993v-17.911z" fill="#fbe7ba"/><path d="m420.897 233.579h-22.4v17.911h48.456v-17.911z" fill="#fbe7ba"/><path d="m78.4445 255.484h-52.7375z" fill="#fff"/><g stroke-linecap="round" stroke-linejoin="round" stroke-width="2"><path d="m78.4445 255.484h-52.7375" stroke="#dedfe0"/><path d="m17.6708 255.484h-16.05361" stroke="#dedfe0"/><path d="m148.719 180.179h-100.5315v127.317h100.5315z" fill="#f7f8fa" stroke="#8a92a3"/><path d="m66.377 287.507v-10.567h5.6044 4.943v10.567z" fill="#ffec99" stroke="#dedfe0"/></g><path d="m84.4775 283.263h44.1295z" fill="#fff"/><path d="m84.4775 283.263h44.1295" stroke="#d1cfcf" stroke-linecap="round" stroke-linejoin="round" stroke-width="2"/><path d="m66.377 241.093v10.567h10.5474v-10.567h-4.943z" fill="#ffec99" stroke="#dedfe0" stroke-linecap="round" stroke-linejoin="round" stroke-width="2"/><path d="m84.4775 247.415h44.1295z" fill="#fff"/><path d="m84.4775 247.415h44.1295" stroke="#d1cfcf" stroke-linecap="round" stroke-linejoin="round" stroke-width="2"/><path d="m76.9244 215.812h-10.5474v-10.567h5.6044" fill="#c3e6ec"/><path d="m76.9244 215.812h-10.5474v-10.567h5.6044" stroke="#645a53" stroke-linecap="round" stroke-linejoin="round" stroke-width="2"/><path d="m84.4775 211.567h44.1295z" fill="#fff"/><path d="m84.4775 211.567h44.1295" stroke="#645a53" stroke-linecap="round" stroke-linejoin="round" stroke-width="2"/><path d="m71.3018 208.916 1.6625 2.902 5.8012-7.89" fill="#fff"/><path d="m71.3018 208.916 1.6625 2.902 5.8012-7.89" stroke="#645a53" stroke-linecap="round" stroke-linejoin="round" stroke-width="2"/><path d="m408.33 324.815c.154-8.117-6.059-14.935-14.141-15.52.063-.617.107-1.235.116-1.862.2-10.616-7.255-19.835-17.662-21.842 3.783-9.049 1.991-19.474-4.596-26.734-6.587-7.259-16.775-10.038-26.126-7.126-4.667-20.177-23.521-33.778-44.101-31.812-20.58 1.965-36.53 18.889-37.308 39.587-.778 20.697 13.857 38.775 34.231 42.285-7.435 7.38-11.7 17.376-11.888 27.86" fill="url(#b)"/><path d="m408.33 324.815c.154-8.117-6.059-14.935-14.141-15.52.063-.617.107-1.235.116-1.862.2-10.616-7.255-19.835-17.662-21.842 3.783-9.049 1.991-19.474-4.596-26.734-6.587-7.259-16.775-10.038-26.126-7.126-4.667-20.177-23.521-33.778-44.101-31.812-20.58 1.965-36.53 18.889-37.308 39.587-.778 20.697 13.857 38.775 34.231 42.285-7.435 7.38-11.7 17.376-11.888 27.86" stroke="#505763" stroke-linecap="round" stroke-linejoin="round" stroke-width="2"/><path d="m354.01 274.567c-5.801-3.312-13.183-1.312-16.528 4.478" stroke="#645a53" stroke-linecap="round" stroke-linejoin="round" stroke-width="2"/><path d="m237.971 305.794c1.358-14.498-36.899-45.618-49.618-55.164-.701-.517-1.068-1.374-.957-2.239 0-.179.021-.361.063-.546.69-7.552-4.251-14.469-11.608-16.251-7.357-1.783-14.906 2.107-17.737 9.14-.326.813-1.058 1.392-1.922 1.523-21.381 3.44-36.465 22.862-34.539 44.471.109 1.261-.752 2.399-1.993 2.633-7.952 1.616-14.351 7.523-16.608 15.332-.339 1.123-1.438 1.838-2.601 1.692l-.6346-.072c-13.8547-1.298-30.0961 9.171-28.5229 29.391" fill="url(#c)"/><path d="m237.971 305.794c1.358-14.498-36.899-45.618-49.618-55.164-.701-.517-1.068-1.374-.957-2.239 0-.179.021-.361.063-.546.69-7.552-4.251-14.469-11.608-16.251-7.357-1.783-14.906 2.107-17.737 9.14-.326.813-1.058 1.392-1.922 1.523-21.381 3.44-36.465 22.862-34.539 44.471.109 1.261-.752 2.399-1.993 2.633-7.952 1.616-14.351 7.523-16.608 15.332-.339 1.123-1.438 1.838-2.601 1.692l-.6346-.072c-13.8547-1.298-30.0961 9.171-28.5229 29.391" stroke="#505763" stroke-linecap="round" stroke-linejoin="round" stroke-width="2"/><path d="m312.607 150.412h-142.882v180.958h142.882z" fill="#a26d91" stroke="#505763" stroke-linecap="round" stroke-linejoin="round" stroke-width="2"/><path d="m312.616 315.627h-142.265v-94.424l142.265-26.212z" fill="#8b4875"/><path d="m312.607 150.412h-142.882v180.958h142.882z" stroke="#505763" stroke-linecap="round" stroke-linejoin="round" stroke-width="2"/><path d="m289.304 280.881c0-1.308 2.923-22.89-10.511-26.526-8.625-2.424-16.951-5.809-24.823-10.092v-8.902s13.497-.224 19.12-4.048c-3.066-15.591-3.227-12.376-3.227-27.438 0-23.284-18.002-36.323-37.542-26.553-13.533 1.424-14.454 13.89-14.302 15.985-.375 5.221-.563 24.135-5.515 37.415 6.268 2.785 13.003 4.361 19.853 4.648v8.902l-22.954 10.871s-10.727 3.905-10.727 9.126c-.098 7.289-.733 17.068-.733 17.068s91.361.851 91.361-.456z" fill="url(#d)"/><path d="m312.608 273.743h-142.552v57.305h142.552z" fill="#fff" stroke="#505763" stroke-linecap="round" stroke-linejoin="round" stroke-width="2"/><path d="m245.747 302.901h-63.937v9.627h63.937z" fill="#edece6"/><path d="m280.929 285.448h-99.119v9.627h99.119z" fill="#edece6"/><path d="m310.882 331.37h21.667" stroke="#505763" stroke-linecap="round" stroke-linejoin="round" stroke-width="2"/><path d="m338.521 331.37h11.932" stroke="#d3d2d2" stroke-linecap="round" stroke-linejoin="round" stroke-width="2"/><path d="m208.956 331.37h-60.55" stroke="#505763" stroke-linecap="round" stroke-linejoin="round" stroke-width="2"/><path d="m140.63 331.37h-15.526" stroke="#d3d2d2" stroke-linecap="round" stroke-linejoin="round" stroke-width="2"/><path d="m316.111 334.37c-.447-7.581-6.382-13.683-13.935-14.328-2.419-.19-4.848.21-7.079 1.164-5.747-6.692-14.632-9.785-23.282-8.107-8.65 1.679-15.74 7.872-18.577 16.229-8.265.763-14.373 8.057-13.685 16.344" fill="#fff"/><path d="m316.111 334.37c-.447-7.581-6.382-13.683-13.935-14.328-2.419-.19-4.848.21-7.079 1.164-5.747-6.692-14.632-9.785-23.282-8.107-8.65 1.679-15.74 7.872-18.577 16.229-8.265.763-14.373 8.057-13.685 16.344" stroke="#505763" stroke-linecap="round" stroke-linejoin="round" stroke-width="2"/></g></svg>