<svg fill="none" height="120" viewBox="0 0 122 120" width="122" xmlns="http://www.w3.org/2000/svg"><circle cx="61.1699" cy="60" fill="#fbfbf8" r="60"/><path d="m82.3337 57.3333h8v5.3333h-8zm-50.6667 0h8v5.3333h-8zm32-26.6667v8h-5.3333v-8zm-21.5467 6.6667 5.68 5.7067-3.7866 3.76-5.68-5.6534zm32.08 5.68 5.6534-5.68 3.8133 3.8133-5.68 5.6534zm-13.2.9867c4.2435 0 8.3132 1.6857 11.3137 4.6862 3.0006 3.0006 4.6863 7.0703 4.6863 11.3138 0 5.92-3.2266 11.0933-8 13.8666v4.8c0 .7073-.2809 1.3855-.781 1.8856s-1.1784.7811-1.8856.7811h-10.6667c-.7073 0-1.3855-.281-1.8856-.7811s-.7811-1.1783-.7811-1.8856v-4.8c-4.7733-2.7733-8-7.9466-8-13.8666 0-4.2435 1.6857-8.3132 4.6863-11.3138 3.0006-3.0005 7.0703-4.6862 11.3137-4.6862zm5.3334 40v2.6666c0 .7073-.281 1.3855-.7811 1.8856s-1.1784.7811-1.8856.7811h-5.3333c-.7073 0-1.3856-.281-1.8857-.7811s-.781-1.1783-.781-1.8856v-2.6666zm-8-8h5.3333v-5.68c4.6133-1.1734 8-5.36 8-10.32 0-2.829-1.1238-5.5421-3.1242-7.5425s-4.7135-3.1242-7.5425-3.1242-5.5421 1.1238-7.5424 3.1242c-2.0004 2.0004-3.1242 4.7135-3.1242 7.5425 0 4.96 3.3866 9.1466 8 10.32z" fill="#2896a9"/></svg>