<svg fill="none" height="120" viewBox="0 0 121 120" width="121" xmlns="http://www.w3.org/2000/svg"><circle cx="60.834" cy="60" fill="#fbfbf8" r="60"/><path d="m52.8343 84h24c2.2133 0 4.1067-1.3334 4.9067-3.2534l8.0533-18.8c.24-.6133.3733-1.2533.3733-1.9466v-5.3334c0-2.9333-2.4-5.3333-5.3333-5.3333h-16.8267l2.5334-12.1867.08-.8533c0-1.0933-.4534-2.1067-1.1734-2.8267l-2.8266-2.8-17.5734 17.5734c-.96.96-1.5466 2.2933-1.5466 3.76v26.6666c0 2.9334 2.4 5.3334 5.3333 5.3334zm0-32 11.5733-11.5734-3.5733 14.24h24v5.3334l-8 18.6666h-24zm-21.3333 0h10.6666v32h-10.6666z" fill="#2896a9"/></svg>